<?xml version="1.0" encoding="UTF-8" standalone="no"?>
<!DOCTYPE svg PUBLIC "-//W3C//DTD SVG 1.1//EN" "http://www.w3.org/Graphics/SVG/1.1/DTD/svg11.dtd">
<svg width="100%" height="100%" viewBox="0 0 1080 1080" version="1.1" xmlns="http://www.w3.org/2000/svg" xmlns:xlink="http://www.w3.org/1999/xlink" xml:space="preserve" xmlns:serif="http://www.serif.com/" style="fill-rule:evenodd;clip-rule:evenodd;stroke-linejoin:round;stroke-miterlimit:2;">
    <g transform="matrix(1,0,0,1,-2430,-1131)">
        <g transform="matrix(1,0,0,1,2430,1130)">
            <g transform="matrix(2.5464,0,0,2.5464,-106.651,-1332.07)">
                <g transform="matrix(-1,0,0,1,507.895,390.371)">
                    <path d="M466.012,345.207C466.012,228.087 371.067,133.143 253.947,133.143C253.947,133.143 253.947,133.143 253.947,133.143C136.827,133.143 41.883,228.087 41.883,345.207C41.883,345.207 41.883,345.207 41.883,345.207C41.883,462.327 136.828,557.272 253.947,557.272C253.948,557.272 253.948,557.272 253.948,557.272C371.068,557.272 466.012,462.327 466.012,345.207L466.012,345.207Z"/>
                </g>
                <g>
                    <g transform="matrix(0.621839,-0.783145,-0.783145,-0.621839,232.756,801.151)">
                        <path d="M-4.577,-23.889C-23.058,-18.686 -40.394,-8.883 -54.719,5.312C-39.423,-4.595 -22.25,-10.792 -4.577,-13.114C-4.643,-14.509 -4.682,-15.91 -4.696,-17.309C-4.72,-19.503 -4.681,-21.695 -4.577,-23.889" style="fill:white;fill-rule:nonzero;"/>
                    </g>
                    <g transform="matrix(1,0,0,1,313.331,741.211)">
                        <path d="M0,99.514C-22.4,96.885 -42.849,87.882 -59.492,74.38C-63.006,71.532 -66.346,68.481 -69.498,65.249C-86.447,47.885 -98.009,25.231 -101.478,0C-95.209,6.279 -87.548,11.162 -78.998,14.146C-68.92,54.272 -38.851,86.458 0,99.514" style="fill:white;fill-rule:nonzero;"/>
                    </g>
                    <g transform="matrix(-0.794008,-0.607907,-0.607907,0.794008,244.535,784.545)">
                        <path d="M-14.503,-65.371C-25.931,-45.169 -30.709,-22.589 -29.231,-0.506C-24.239,-1.714 -19.319,-3.237 -14.503,-5.076C-13.279,-17.215 -10.217,-29.252 -5.258,-40.753C-10.191,-48.236 -13.306,-56.674 -14.503,-65.371" style="fill:white;fill-rule:nonzero;"/>
                    </g>
                    <g transform="matrix(-0.00100012,-0.999999,-0.999999,0.00100012,242.8,760.369)">
                        <path d="M2.598,-19.616C-5.137,-17.498 -12.567,-14.628 -19.605,-11.093C-12.569,-7.572 -5.139,-4.724 2.598,-2.618C2.146,-5.365 1.91,-8.182 1.907,-11.058C1.904,-13.973 2.141,-16.83 2.598,-19.616" style="fill:white;fill-rule:nonzero;"/>
                    </g>
                    <g transform="matrix(1,0,0,1,254.126,629.646)">
                        <path d="M0,118.664C19.3,118.664 36.479,109.4 47.317,95.087C47.944,94.259 48.554,93.41 49.138,92.549C50.179,91.018 51.147,89.435 52.043,87.806C53.28,85.554 54.376,83.217 55.314,80.798C55.318,80.786 55.327,80.769 55.331,80.756C56.18,78.576 56.901,76.333 57.485,74.034C58.031,71.914 58.457,69.752 58.764,67.547C58.897,66.608 59.003,65.666 59.089,64.715C59.251,62.94 59.332,61.145 59.332,59.332C59.332,56.969 59.191,54.641 58.922,52.346C57.566,51.685 56.205,51.045 54.853,50.435C52.857,49.535 50.819,48.674 48.78,47.872C48.238,47.659 47.697,47.445 47.146,47.241C48.144,51.109 48.669,55.161 48.669,59.332C48.669,63.725 48.085,67.982 46.984,72.029C46.929,72.247 46.865,72.464 46.805,72.678C46.165,74.925 45.368,77.105 44.421,79.203C43.367,81.566 42.122,83.827 40.715,85.968C40.71,85.976 40.706,85.981 40.702,85.985C39.047,88.51 37.162,90.868 35.076,93.035C32.406,95.816 29.408,98.281 26.145,100.367C25.33,100.887 24.499,101.386 23.65,101.86C23.65,101.86 23.646,101.864 23.641,101.86C16.638,105.771 8.573,108.001 0,108.001C-8.598,108.001 -16.689,105.758 -23.705,101.825C-24.239,101.74 -24.767,101.651 -25.301,101.561C-29.092,100.913 -32.922,100.107 -36.693,99.173C-39.866,98.383 -43.056,97.479 -46.229,96.477C-35.345,109.997 -18.664,118.664 0,118.664M-58.935,66.203C-57.621,66.843 -56.261,67.483 -54.875,68.11C-52.333,69.257 -49.757,70.332 -47.172,71.321C-48.149,67.487 -48.669,63.469 -48.669,59.332C-48.669,55.344 -48.187,51.467 -47.279,47.761C-47.219,47.522 -47.159,47.283 -47.095,47.045C-46.511,44.793 -45.765,42.605 -44.877,40.493C-43.871,38.109 -42.681,35.819 -41.32,33.648C-41.32,33.639 -41.316,33.631 -41.308,33.627C-39.704,31.05 -37.866,28.641 -35.818,26.419C-33.178,23.54 -30.193,20.985 -26.93,18.814C-26.098,18.259 -25.249,17.73 -24.384,17.227C-17.21,13.056 -8.88,10.663 0,10.663C8.569,10.663 16.63,12.89 23.629,16.796C24.157,16.882 24.691,16.967 25.219,17.057C28.99,17.692 32.82,18.485 36.607,19.419C39.729,20.183 42.877,21.062 45.956,22.021C46.02,22.042 46.08,22.06 46.144,22.081C35.26,8.62 18.617,0 0,0C-19.786,0 -37.345,9.738 -48.127,24.674C-48.707,25.476 -49.27,26.295 -49.808,27.131C-50.84,28.713 -51.795,30.351 -52.67,32.036C-53.847,34.296 -54.883,36.642 -55.766,39.06C-55.77,39.073 -55.775,39.09 -55.783,39.103C-56.572,41.278 -57.242,43.517 -57.775,45.803C-58.27,47.906 -58.649,50.051 -58.91,52.235C-58.956,52.645 -59.003,53.058 -59.042,53.472C-59.234,55.4 -59.332,57.353 -59.332,59.332C-59.332,61.657 -59.2,63.947 -58.935,66.203" style="fill:white;fill-rule:nonzero;"/>
                    </g>
                    <g transform="matrix(1,0,0,1,254.126,716.321)">
                        <path d="M0,-54.687C13.836,-54.687 26.409,-52.512 37.268,-49.441C37.52,-49.368 37.767,-49.3 38.015,-49.228C40.224,-48.592 42.361,-47.918 44.421,-47.219C45.287,-46.925 46.136,-46.626 46.976,-46.327L47.006,-46.315C47.807,-46.025 48.601,-45.73 49.377,-45.432C49.599,-45.351 49.821,-45.265 50.038,-45.18C50.401,-45.044 50.763,-44.899 51.126,-44.758C51.224,-44.719 51.326,-44.681 51.424,-44.638C51.859,-44.468 52.29,-44.293 52.712,-44.122C53.271,-43.892 53.83,-43.662 54.389,-43.427C54.892,-43.21 55.395,-42.996 55.898,-42.775C56.427,-42.544 56.952,-42.31 57.476,-42.075L57.481,-42.071C58.01,-41.832 58.547,-41.589 59.089,-41.337C59.618,-41.094 60.134,-40.851 60.641,-40.608C60.999,-40.433 61.362,-40.254 61.724,-40.079L62.245,-39.827C62.697,-39.601 63.145,-39.38 63.58,-39.158C63.614,-39.136 63.652,-39.119 63.686,-39.102C64.087,-38.898 64.484,-38.693 64.876,-38.492C72.835,-34.351 78.951,-30.235 82.875,-27.348C78.951,-24.46 72.809,-20.344 64.778,-16.173C64.48,-14.442 64.113,-12.723 63.682,-11.047C63.059,-8.598 62.279,-6.15 61.362,-3.779L61.243,-3.467C61.23,-3.438 61.221,-3.408 61.204,-3.378C61.085,-3.062 60.957,-2.751 60.833,-2.435C63.738,-3.723 66.42,-5.011 68.869,-6.261C85.264,-14.655 94.638,-23.036 95.026,-23.385L99.419,-27.343L95.026,-31.306C94.638,-31.656 85.264,-40.036 68.869,-48.43C66.028,-49.885 62.868,-51.39 59.409,-52.874C57.084,-53.872 54.623,-54.862 52.038,-55.822C51.522,-56.013 51.002,-56.205 50.473,-56.393C48.439,-57.127 46.327,-57.839 44.144,-58.517C44.097,-58.534 44.054,-58.547 44.016,-58.56C41.034,-59.485 38.032,-60.321 35.089,-61.042C35.085,-61.042 35.08,-61.042 35.076,-61.046C34.193,-61.264 33.31,-61.473 32.423,-61.673C30.581,-62.091 28.73,-62.475 26.887,-62.825C26.064,-62.978 25.241,-63.128 24.422,-63.264C24.332,-63.281 24.247,-63.298 24.158,-63.311C24.076,-63.324 23.991,-63.337 23.91,-63.349C23.624,-63.396 23.347,-63.443 23.066,-63.49C22.784,-63.537 22.503,-63.584 22.217,-63.627C15.235,-64.71 7.805,-65.35 0,-65.35C-7.605,-65.35 -15.022,-64.603 -22.097,-63.358C-22.533,-63.093 -22.959,-62.816 -23.381,-62.539C-26.218,-60.654 -28.811,-58.432 -31.105,-55.932C-32.811,-54.077 -34.347,-52.077 -35.686,-49.974L-35.899,-49.629C-36.023,-49.432 -36.142,-49.236 -36.262,-49.04C-25.113,-52.397 -12.804,-54.687 0,-54.687M-94.997,-23.36C-94.6,-23.006 -85.101,-14.642 -68.651,-6.257C-65.883,-4.845 -62.812,-3.386 -59.464,-1.945C-57.139,-0.942 -54.683,0.051 -52.102,1.019C-49.616,1.945 -47.014,2.845 -44.302,3.702C-43.837,3.847 -43.372,3.992 -42.911,4.133C-42.22,4.346 -41.533,4.551 -40.847,4.751C-40.446,4.867 -40.049,4.982 -39.648,5.093C-38.906,5.302 -38.16,5.506 -37.422,5.703C-36.658,5.907 -35.904,6.099 -35.149,6.287C-33.319,6.739 -31.489,7.161 -29.664,7.541C-29.207,7.639 -28.751,7.733 -28.295,7.822C-27.838,7.912 -27.386,8.001 -26.93,8.087C-26.034,8.262 -25.13,8.424 -24.217,8.581C-23.71,8.667 -23.202,8.752 -22.695,8.833L-22.302,8.897L-21.573,9.012C-14.766,10.049 -7.549,10.663 0,10.663C7.532,10.663 14.71,10.066 21.483,9.046C21.889,8.808 22.298,8.556 22.699,8.3C25.522,6.496 28.137,4.35 30.461,1.928C32.283,0.038 33.925,-2.022 35.349,-4.197L35.579,-4.547C35.639,-4.636 35.695,-4.73 35.754,-4.82C25.104,-1.923 13.102,0 0,0C-13.81,0 -26.418,-2.214 -37.315,-5.327C-37.567,-5.4 -37.819,-5.472 -38.07,-5.545C-40.275,-6.189 -42.412,-6.871 -44.468,-7.575C-46.259,-8.185 -47.991,-8.816 -49.663,-9.46C-50.307,-9.707 -50.955,-9.959 -51.603,-10.219C-51.898,-10.339 -52.192,-10.458 -52.482,-10.577C-52.823,-10.714 -53.16,-10.855 -53.493,-10.995C-53.83,-11.132 -54.162,-11.273 -54.495,-11.413C-55.502,-11.844 -56.508,-12.283 -57.506,-12.735C-57.86,-12.898 -58.219,-13.055 -58.573,-13.222C-58.931,-13.388 -59.285,-13.55 -59.635,-13.716C-60.21,-13.985 -60.782,-14.258 -61.349,-14.535C-61.481,-14.599 -61.609,-14.659 -61.737,-14.719L-61.899,-14.8C-62.441,-15.064 -62.974,-15.333 -63.494,-15.597C-63.533,-15.614 -63.567,-15.636 -63.605,-15.653C-64.04,-15.875 -64.467,-16.092 -64.889,-16.314C-72.579,-20.315 -78.572,-24.281 -82.513,-27.13C-78.491,-29.809 -72.473,-33.532 -64.966,-37.379C-64.706,-39.055 -64.386,-40.71 -64.002,-42.335C-63.422,-44.818 -62.68,-47.317 -61.797,-49.757L-61.528,-50.482C-61.464,-50.652 -61.4,-50.823 -61.332,-50.993C-63.213,-50.145 -65.004,-49.3 -66.693,-48.468C-83.656,-40.152 -94.293,-31.894 -94.741,-31.545L-99.778,-27.608L-94.997,-23.36Z" style="fill:white;fill-rule:nonzero;"/>
                    </g>
                </g>
            </g>
        </g>
    </g>
</svg>
